<svg width="32" height="32" viewBox="0 0 32 32" fill="none" xmlns="http://www.w3.org/2000/svg">
<g clip-path="url(#clip0_124_1255)">
<path d="M4 11H3V13V23V25H4V27H5V28H7H25H26V27H27V26H28V25H29V22V13V11H28V9H27V8H26H24H8H7H5V9H4V11Z" fill="#00A4DC"/>
<rect x="5" y="29" width="22" height="1" fill="black"/>
<rect x="27" y="28" width="1" height="1" fill="black"/>
<rect x="28" y="27" width="1" height="1" fill="black"/>
<rect x="29" y="25" width="1" height="2" fill="black"/>
<rect x="29" y="9" width="1" height="16" fill="black"/>
<rect x="28" y="8" width="1" height="1" fill="black"/>
<rect x="27" y="7" width="1" height="1" fill="black"/>
<rect x="25" y="6" width="2" height="1" fill="black"/>
<rect x="7" y="6" width="18" height="1" fill="black"/>
<rect x="5" y="6" width="2" height="1" fill="black"/>
<rect x="4" y="7" width="1" height="1" fill="black"/>
<rect x="13" y="5" width="1" height="1" fill="black"/>
<rect x="14" y="5" width="1" height="1" fill="black"/>
<rect x="15" y="4" width="1" height="1" fill="black"/>
<rect x="16" y="3" width="1" height="1" fill="black"/>
<rect x="17" y="2" width="1" height="1" fill="black"/>
<rect x="18" y="2" width="1" height="1" fill="black"/>
<rect x="17" y="3" width="1" height="1" fill="black"/>
<rect x="16" y="4" width="1" height="1" fill="black"/>
<rect x="15" y="5" width="1" height="1" fill="black"/>
<rect x="12" y="5" width="1" height="1" fill="black"/>
<rect x="11" y="4" width="1" height="1" fill="black"/>
<rect x="10" y="3" width="1" height="1" fill="black"/>
<rect x="9" y="2" width="1" height="1" fill="black"/>
<rect x="12" y="4" width="1" height="1" fill="black"/>
<rect x="11" y="3" width="1" height="1" fill="black"/>
<rect x="10" y="2" width="1" height="1" fill="black"/>
<rect x="3" y="8" width="1" height="1" fill="black"/>
<rect x="2" y="9" width="1" height="16" fill="black"/>
<rect x="2" y="25" width="1" height="2" fill="black"/>
<rect x="3" y="27" width="1" height="1" fill="black"/>
<rect x="4" y="28" width="1" height="1" fill="black"/>
<rect x="3" y="25" width="1" height="2" fill="#007AAF"/>
<rect x="4" y="27" width="1" height="1" fill="#007AAF"/>
<rect x="28" y="25" width="1" height="2" fill="#007AAF"/>
<rect x="27" y="26" width="1" height="2" fill="#007AAF"/>
<rect x="26" y="27" width="1" height="1" fill="#007AAF"/>
<rect x="26" y="28" width="1" height="1" fill="#007AAF"/>
<rect x="24" y="28" width="2" height="1" fill="#007AAF"/>
<rect x="5" y="28" width="19" height="1" fill="#00A4DC"/>
<rect x="5" y="28" width="1" height="1" fill="#007AAF"/>
<rect x="6" y="28" width="1" height="1" fill="#007AAF"/>
<rect x="7" y="28" width="17" height="1" fill="#007AAF"/>
<rect x="3" y="9" width="1" height="2" fill="#41C6F5"/>
<rect x="4" y="8" width="1" height="1" fill="#41C6F5"/>
<rect x="5" y="7" width="2" height="1" fill="#41C6F5"/>
<rect x="7" y="7" width="18" height="1" fill="#00A4DC"/>
<rect x="7" y="7" width="20" height="1" fill="#41C6F5"/>
<rect x="27" y="8" width="1" height="1" fill="#41C6F5"/>
<rect x="28" y="9" width="1" height="2" fill="#41C6F5"/>
<rect x="17" y="13" width="4" height="1" fill="black"/>
<rect x="19" y="14" width="2" height="1" fill="black"/>
<rect x="18" y="15" width="2" height="1" fill="black"/>
<rect x="17" y="16" width="2" height="1" fill="black"/>
<rect x="17" y="17" width="1" height="1" fill="black"/>
<rect x="17" y="17" width="4" height="1" fill="black"/>
<rect x="11" y="13" width="4" height="1" fill="black"/>
<rect x="13" y="14" width="2" height="1" fill="black"/>
<rect x="12" y="15" width="2" height="1" fill="black"/>
<rect x="11" y="16" width="2" height="1" fill="black"/>
<rect x="11" y="17" width="1" height="1" fill="black"/>
<rect x="11" y="17" width="4" height="1" fill="black"/>
<rect x="12" y="20" width="1" height="2" fill="black"/>
<rect x="13" y="21" width="1" height="2" fill="black"/>
<rect x="18" y="21" width="1" height="2" fill="black"/>
<rect x="19" y="20" width="1" height="2" fill="black"/>
<rect x="14" y="22" width="4" height="1" fill="black"/>
<rect x="5" y="11" width="1" height="14" fill="black"/>
<rect x="26" y="11" width="1" height="14" fill="black"/>
<rect x="6" y="25" width="1" height="1" fill="black"/>
<rect x="25" y="25" width="1" height="1" fill="black"/>
<rect x="6" y="10" width="1" height="1" fill="black"/>
<rect x="25" y="10" width="1" height="1" fill="black"/>
<rect x="7" y="26" width="18" height="1" fill="black"/>
<rect x="7" y="9" width="18" height="1" fill="black"/>
</g>
<defs>
<clipPath id="clip0_124_1255">
<rect width="28" height="28" fill="white" transform="translate(2 2)"/>
</clipPath>
</defs>
</svg>
