<svg xmlns="http://www.w3.org/2000/svg" width="32" height="32" viewBox="0 0 32 32" fill="none"><g clip-path="url(#a)"><path fill="#00a4dc" d="M4 11H3v14h1v2h1v1h21v-1h1v-1h1v-1h1V11h-1V9h-1V8H5v1H4z"/><path fill="#72daff" d="M6 10v1H5v14h1v1h1v1h18v-1h1v-1h1V11h-1v-1h-1V9H7v1z"/><path fill="#000" d="M5 29h22v1H5zM27 28h1v1h-1zM28 27h1v1h-1zM29 25h1v2h-1zM29 9h1v16h-1zM28 8h1v1h-1zM27 7h1v1h-1zM25 6h2v1h-2zM7 6h18v1H7zM5 6h2v1H5zM4 7h1v1H4zM13 5h1v1h-1zM14 4h1v1h-1zM15 3h1v1h-1zM16 2h1v1h-1zM17 2h1v1h-1zM17 3h1v1h-1zM16 4h1v1h-1zM15 5h1v1h-1zM11 5h1v1h-1zM10 4h1v1h-1zM9 3h1v1H9z"/><path fill="#576d76" d="M10 3h1v1h-1zM11 4h1v1h-1zM12 5h1v1h-1zM14 5h1v1h-1zM15 4h1v1h-1zM16 3h1v1h-1z"/><path fill="#000" d="M9 2h1v1H9zM12 4h1v1h-1zM11 3h1v1h-1zM10 2h1v1h-1zM3 8h1v1H3zM2 9h1v16H2zM2 25h1v2H2zM3 27h1v1H3zM4 28h1v1H4z"/><path fill="#007aaf" d="M3 25h1v2H3zM4 27h1v1H4zM28 25h1v2h-1zM27 26h1v2h-1zM26 27h1v1h-1zM26 28h1v1h-1zM24 28h2v1h-2z"/><path fill="#00a4dc" d="M5 28h19v1H5z"/><path fill="#007aaf" d="M5 28h1v1H5zM6 28h1v1H6zM7 28h17v1H7z"/><path fill="#41c6f5" d="M3 9h1v2H3zM4 8h1v1H4zM5 7h2v1H5z"/><path fill="#00a4dc" d="M7 7h18v1H7z"/><path fill="#41c6f5" d="M7 7h20v1H7zM27 8h1v1h-1zM28 9h1v2h-1z"/><path fill="#000" d="M17 13h4v1h-4zM19 14h2v1h-2zM18 15h2v1h-2zM17 16h2v1h-2zM17 17h1v1h-1z"/><path fill="#000" d="M17 17h4v1h-4zM11 13h4v1h-4zM13 14h2v1h-2zM12 15h2v1h-2zM11 16h2v1h-2zM11 17h1v1h-1z"/><path fill="#000" d="M11 17h4v1h-4zM12 20h1v2h-1zM13 21h1v2h-1zM18 21h1v2h-1zM19 20h1v2h-1zM14 22h4v1h-4zM5 11h1v14H5zM26 11h1v14h-1zM6 25h1v1H6zM25 25h1v1h-1zM6 10h1v1H6zM25 10h1v1h-1zM7 26h18v1H7zM7 9h18v1H7z"/><path fill="#97e3fe" d="M7 25h18v1H7zM7 10h18v1H7zM6 12h1v12H6z"/><path fill="#82deff" d="M7 12h1v12H7zM8 25h16v-1H8zM8 11h16v1H8zM23 24h1v-1h-1zM24 12h1v12h-1zM23 12h1v1h-1zM8 12h1v1H8zM8 23h1v1H8z"/><path fill="#97e3fe" d="M25 12h1v12h-1zM6 11h2v1H6zM24 11h2v1h-2zM24 24h2v1h-2zM6 24h2v1H6z"/></g><defs><clipPath id="a"><path fill="#fff" d="M2 2h28v28H2z"/></clipPath></defs></svg>