<svg xmlns="http://www.w3.org/2000/svg" width="32" height="32" fill="none" viewBox="0 0 32 32"><g clip-path="url(#a)"><path fill="#00a4dc" d="M4 11H3v14h1v2h1v1h21v-1h1v-1h1v-1h1V11h-1V9h-1V8H5v1H4z"/><path fill="#72daff" d="M6 10v1H5v14h1v1h1v1h18v-1h1v-1h1V11h-1v-1h-1V9H7v1z"/><path fill="#000" d="M5 29h22v1H5zm22-1h1v1h-1zm1-1h1v1h-1zm1-2h1v2h-1zm0-16h1v16h-1zm-1-1h1v1h-1zm-1-1h1v1h-1zm-2-1h2v1h-2zM7 6h18v1H7zM5 6h2v1H5zM4 7h1v1H4zm9-2h1v1h-1zm1 0h1v1h-1zm1-1h1v1h-1zm1-1h1v1h-1zm1-1h1v1h-1zm1 0h1v1h-1zm-1 1h1v1h-1zm-1 1h1v1h-1zm-1 1h1v1h-1zm-3 0h1v1h-1zm-1-1h1v1h-1zm-1-1h1v1h-1zM9 2h1v1H9zm3 2h1v1h-1zm-1-1h1v1h-1zm-1-1h1v1h-1zM3 8h1v1H3zM2 9h1v16H2zm0 16h1v2H2zm1 2h1v1H3zm1 1h1v1H4z"/><path fill="#007aaf" d="M3 25h1v2H3zm1 2h1v1H4zm24-2h1v2h-1zm-1 1h1v2h-1zm-1 1h1v1h-1zm0 1h1v1h-1zm-2 0h2v1h-2z"/><path fill="#00a4dc" d="M5 28h19v1H5z"/><path fill="#007aaf" d="M5 28h1v1H5zm1 0h1v1H6zm1 0h17v1H7z"/><path fill="#41c6f5" d="M3 9h1v2H3zm1-1h1v1H4zm1-1h2v1H5z"/><path fill="#00a4dc" d="M7 7h18v1H7z"/><path fill="#41c6f5" d="M7 7h20v1H7zm20 1h1v1h-1zm1 1h1v2h-1z"/><path fill="#000" d="M17 13h4v1h-4zm2 1h2v1h-2zm-1 1h2v1h-2zm-1 1h2v1h-2zm0 1h1v1h-1z"/><path fill="#000" d="M17 17h4v1h-4zm-6-4h4v1h-4zm2 1h2v1h-2zm-1 1h2v1h-2zm-1 1h2v1h-2zm0 1h1v1h-1z"/><path fill="#000" d="M11 17h4v1h-4zm1 3h1v2h-1zm1 1h1v2h-1zm5 0h1v2h-1zm1-1h1v2h-1zm-5 2h4v1h-4zM5 11h1v14H5zm21 0h1v14h-1zM6 25h1v1H6zm19 0h1v1h-1zM6 10h1v1H6zm19 0h1v1h-1zM7 26h18v1H7zM7 9h18v1H7z"/><path fill="#97e3fe" d="M7 25h18v1H7zm0-15h18v1H7zm-1 2h1v12H6z"/><path fill="#82deff" d="M7 12h1v12H7zm1 13h16v-1H8zm0-14h16v1H8zm15 13h1v-1h-1zm1-12h1v12h-1zm-1 0h1v1h-1zM8 12h1v1H8zm0 11h1v1H8z"/><path fill="#97e3fe" d="M25 12h1v12h-1zM6 11h2v1H6zm18 0h2v1h-2zm0 13h2v1h-2zM6 24h2v1H6z"/></g><defs><clipPath id="a"><path fill="#fff" d="M2 2h28v28H2z"/></clipPath></defs></svg>