<svg width="56" height="28" viewBox="0 0 56 28" fill="none" xmlns="http://www.w3.org/2000/svg" role="img" aria-label="Plozz">
<title>Plozz</title>
<path d="M45 9H53V11H45V9Z" fill="#72DAFF"/>
<path d="M49 11H53V13H49V11Z" fill="#72DAFF"/>
<path d="M47 13H51V15H47V13Z" fill="#72DAFF"/>
<path d="M45 15H49V17H45V15Z" fill="#72DAFF"/>
<path d="M45 17H53V19H45V17Z" fill="#72DAFF"/>
<path d="M34 9H42V11H34V9Z" fill="#72DAFF"/>
<path d="M38 11H42V13H38V11Z" fill="#72DAFF"/>
<path d="M36 13H40V15H36V13Z" fill="#72DAFF"/>
<path d="M34 15H38V17H34V15Z" fill="#72DAFF"/>
<path d="M34 17H42V19H34V17Z" fill="#72DAFF"/>
<path d="M3 11H5V25H3V11Z" fill="#72DAFF"/>
<path d="M5 9H7V11H5V9Z" fill="#72DAFF"/>
<path d="M9 9H11V11H9V9Z" fill="#72DAFF"/>
<path d="M11 11H13V13H11V11Z" fill="#72DAFF"/>
<path d="M7 9H9V11H7V9Z" fill="#72DAFF"/>
<path d="M11 15H13V17H11V15Z" fill="#72DAFF"/>
<path d="M11 13H13V15H11V13Z" fill="#72DAFF"/>
<path d="M9 17H11V19H9V17Z" fill="#72DAFF"/>
<path d="M16 3H18V19H16V3Z" fill="#72DAFF"/>
<path d="M9 15H11V17H9V15Z" fill="#72DAFF"/>
<path d="M9 11H11V13H9V11Z" fill="#72DAFF"/>
<path d="M23 9H25V11H23V9Z" fill="#72DAFF"/>
<path d="M21 11H23V13H21V11Z" fill="#72DAFF"/>
<path d="M23 11H25V13H23V11Z" fill="#72DAFF"/>
<path d="M27 11H29V13H27V11Z" fill="#72DAFF"/>
<path d="M21 13H23V15H21V13Z" fill="#72DAFF"/>
<path d="M21 15H23V17H21V15Z" fill="#72DAFF"/>
<path d="M23 15H25V17H23V15Z" fill="#72DAFF"/>
<path d="M27 15H29V17H27V15Z" fill="#72DAFF"/>
<path d="M23 17H25V19H23V17Z" fill="#72DAFF"/>
<path d="M25 17H27V19H25V17Z" fill="#72DAFF"/>
<path d="M27 17H29V19H27V17Z" fill="#72DAFF"/>
<path d="M29 15H31V17H29V15Z" fill="#72DAFF"/>
<path d="M29 13H31V15H29V13Z" fill="#72DAFF"/>
<path d="M29 11H31V13H29V11Z" fill="#72DAFF"/>
<path d="M25 9H27V11H25V9Z" fill="#72DAFF"/>
<path d="M27 9H29V11H27V9Z" fill="#72DAFF"/>
<path d="M5 17H9V19H5V17Z" fill="#72DAFF"/>
<path d="M5 15H7V17H5V15Z" fill="#72DAFF"/>
<path d="M5 11H7V13H5V11Z" fill="#72DAFF"/>
<path d="M11 19V17H13V11H11V9H9V8H12V10H14V18H12V20H6V26H2V10H4V8H7V9H5V11H3V25H5V19H11ZM18 3H16V19H18V3ZM31 17V11H29V9H27V8H30V10H32V18H30V20H22V18H20V10H22V8H25V9H23V11H21V17H23V19H29V17H31ZM34 9V11H38V13H36V15H34V19H42V17H38V15H40V13H42V9H34ZM45 9V11H49V13H47V15H45V19H53V17H49V15H51V13H53V9H45ZM27 8V9H25V8H27ZM9 8V9H7V8H9ZM9 17H7V15H5V13H7V11H9V13H11V15H9V17ZM27 17H25V15H23V13H25V11H27V13H29V15H27V17ZM43 14H41V16H43V20H33V14H35V12H33V8H43V14ZM54 14H52V16H54V20H44V14H46V12H44V8H54V14ZM19 20H15V2H19V20Z" fill="black"/>
<path d="M5 9H11V10H5V9Z" fill="#97E3FE"/>
<path d="M23 9H29V10H23V9Z" fill="#97E3FE"/>
<path d="M22 11V17H21V11H22Z" fill="#97E3FE"/>
<path d="M4 11L4 24H3L3 11H4Z" fill="#97E3FE"/>
<path d="M4 18H11V19H4V18Z" fill="#97E3FE"/>
<path d="M30 17V11H31V17H30Z" fill="#97E3FE"/>
<path d="M29 17V11H30V17H29Z" fill="#82DEFF"/>
<path d="M23 10H29V11H23V10Z" fill="#82DEFF"/>
<path d="M22 17V11H23V17H22Z" fill="#82DEFF"/>
<path d="M29 18H23V17H29V18Z" fill="#82DEFF"/>
<path d="M23 17H29V18H23V17Z" fill="#82DEFF"/>
<path d="M16 15H18V17H16V15Z" fill="#82DEFF"/>
<path d="M34 17H42V18H34V17Z" fill="#82DEFF"/>
<path d="M35 17H42V18H35V17Z" fill="#82DEFF"/>
<path d="M35 15H36V17H35V15Z" fill="#82DEFF"/>
<path d="M40 11H41V13H40V11Z" fill="#82DEFF"/>
<path d="M45 17H53V18H45V17Z" fill="#82DEFF"/>
<path d="M46 15H47V18H46V15Z" fill="#82DEFF"/>
<path d="M51 10H52V13H51V10Z" fill="#82DEFF"/>
<path d="M34 10H42V11H34V10Z" fill="#82DEFF"/>
<path d="M45 10H53V11H45V10Z" fill="#82DEFF"/>
<path d="M16 5H18V7H16V5Z" fill="#82DEFF"/>
<path d="M5 10H11V11H5V10Z" fill="#82DEFF"/>
<path d="M5 11H6V12H5V11Z" fill="#82DEFF"/>
<path d="M5 16H6V17H5V16Z" fill="#82DEFF"/>
<path d="M10 16H11V17H10V16Z" fill="#82DEFF"/>
<path d="M10 11H11V12H10V11Z" fill="#82DEFF"/>
<path d="M23 11H24V12H23V11Z" fill="#82DEFF"/>
<path d="M28 11H29V12H28V11Z" fill="#82DEFF"/>
<path d="M28 16H29V17H28V16Z" fill="#82DEFF"/>
<path d="M23 16H24V17H23V16Z" fill="#82DEFF"/>
<path d="M4 18L4 11H5L5 18H4Z" fill="#82DEFF"/>
<path d="M11 18H4L4 17H11V18Z" fill="#82DEFF"/>
<path d="M12 11L12 17H11V11H12Z" fill="#82DEFF"/>
<path d="M34 9H42V10H34V9Z" fill="#97E3FE"/>
<path d="M34 9H35V11H34V9Z" fill="#97E3FE"/>
<path d="M41 10H42V13H41V10Z" fill="#97E3FE"/>
<path d="M34 18H42V19H34V18Z" fill="#97E3FE"/>
<path d="M34 15H35V19H34V15Z" fill="#97E3FE"/>
<path d="M41 17H42V19H41V17Z" fill="#97E3FE"/>
<path d="M45 18H53V19H45V18Z" fill="#97E3FE"/>
<path d="M45 15H46V19H45V15Z" fill="#97E3FE"/>
<path d="M23 18H29V19H23V18Z" fill="#97E3FE"/>
<path d="M16 17H18V19H16V17Z" fill="#97E3FE"/>
<path d="M3 18H5L5 23H3V18Z" fill="#97E3FE"/>
<path d="M45 9H53V10H45V9Z" fill="#97E3FE"/>
<path d="M52 9H53V13H52V9Z" fill="#97E3FE"/>
<path d="M16 3H18V5H16V3Z" fill="#97E3FE"/>
<path d="M3 22H5V25H3V22Z" fill="#ACE9FF"/>
</svg>
